<mxfile host="app.diagrams.net" modified="2023-06-25T14:57:40.206Z" agent="Mozilla/5.0 (Macintosh; Intel Mac OS X 10_15_7) AppleWebKit/537.36 (KHTML, like Gecko) Chrome/114.0.0.0 Safari/537.36" etag="yBit5e6dsuC04NwhByKL" version="21.2.3" type="github">
  <diagram name="Page-1" id="ZW21x3WxDeERBMx6ZOWc">
    <mxGraphModel dx="1204" dy="788" grid="0" gridSize="10" guides="1" tooltips="1" connect="1" arrows="1" fold="1" page="0" pageScale="1" pageWidth="850" pageHeight="1100" math="0" shadow="0">
      <root>
        <mxCell id="0" />
        <mxCell id="1" parent="0" />
        <mxCell id="xmvA6-FKrKwEO4W6GDxg-4" value="" style="edgeStyle=orthogonalEdgeStyle;rounded=0;orthogonalLoop=1;jettySize=auto;html=1;" parent="1" source="xmvA6-FKrKwEO4W6GDxg-2" target="xmvA6-FKrKwEO4W6GDxg-3" edge="1">
          <mxGeometry relative="1" as="geometry" />
        </mxCell>
        <mxCell id="xmvA6-FKrKwEO4W6GDxg-2" value="User" style="shape=actor;whiteSpace=wrap;html=1;labelPosition=center;verticalLabelPosition=bottom;align=center;verticalAlign=top;" parent="1" vertex="1">
          <mxGeometry x="200" y="169" width="40" height="60" as="geometry" />
        </mxCell>
        <mxCell id="xmvA6-FKrKwEO4W6GDxg-6" value="" style="edgeStyle=orthogonalEdgeStyle;rounded=0;orthogonalLoop=1;jettySize=auto;html=1;" parent="1" source="xmvA6-FKrKwEO4W6GDxg-3" target="xmvA6-FKrKwEO4W6GDxg-13" edge="1">
          <mxGeometry relative="1" as="geometry" />
        </mxCell>
        <mxCell id="xmvA6-FKrKwEO4W6GDxg-3" value="AWS Mgmt Console&lt;br&gt;(UI)" style="sketch=0;points=[[0,0,0],[0.25,0,0],[0.5,0,0],[0.75,0,0],[1,0,0],[0,1,0],[0.25,1,0],[0.5,1,0],[0.75,1,0],[1,1,0],[0,0.25,0],[0,0.5,0],[0,0.75,0],[1,0.25,0],[1,0.5,0],[1,0.75,0]];points=[[0,0,0],[0.25,0,0],[0.5,0,0],[0.75,0,0],[1,0,0],[0,1,0],[0.25,1,0],[0.5,1,0],[0.75,1,0],[1,1,0],[0,0.25,0],[0,0.5,0],[0,0.75,0],[1,0.25,0],[1,0.5,0],[1,0.75,0]];outlineConnect=0;fontColor=#232F3E;gradientColor=#F34482;gradientDirection=north;fillColor=#BC1356;strokeColor=#ffffff;dashed=0;verticalLabelPosition=bottom;verticalAlign=top;align=center;html=1;fontSize=12;fontStyle=0;aspect=fixed;shape=mxgraph.aws4.resourceIcon;resIcon=mxgraph.aws4.management_console;" parent="1" vertex="1">
          <mxGeometry x="300" y="160" width="78" height="78" as="geometry" />
        </mxCell>
        <mxCell id="xmvA6-FKrKwEO4W6GDxg-8" value="" style="edgeStyle=orthogonalEdgeStyle;rounded=0;orthogonalLoop=1;jettySize=auto;html=1;" parent="1" source="p8Bbz6JcflMg7gLcOM8f-26" target="xmvA6-FKrKwEO4W6GDxg-7" edge="1">
          <mxGeometry relative="1" as="geometry">
            <mxPoint x="717" y="199" as="sourcePoint" />
          </mxGeometry>
        </mxCell>
        <mxCell id="xmvA6-FKrKwEO4W6GDxg-10" style="edgeStyle=orthogonalEdgeStyle;rounded=0;orthogonalLoop=1;jettySize=auto;html=1;" parent="1" source="xmvA6-FKrKwEO4W6GDxg-7" target="xmvA6-FKrKwEO4W6GDxg-9" edge="1">
          <mxGeometry relative="1" as="geometry" />
        </mxCell>
        <mxCell id="xmvA6-FKrKwEO4W6GDxg-15" value="RESPONSE" style="edgeStyle=orthogonalEdgeStyle;rounded=0;orthogonalLoop=1;jettySize=auto;html=1;entryX=0.526;entryY=1.005;entryDx=0;entryDy=0;entryPerimeter=0;" parent="1" source="xmvA6-FKrKwEO4W6GDxg-7" target="xmvA6-FKrKwEO4W6GDxg-13" edge="1">
          <mxGeometry relative="1" as="geometry">
            <Array as="points">
              <mxPoint x="859" y="380" />
              <mxPoint x="513" y="380" />
            </Array>
          </mxGeometry>
        </mxCell>
        <mxCell id="xmvA6-FKrKwEO4W6GDxg-7" value="" style="sketch=0;points=[[0,0,0],[0.25,0,0],[0.5,0,0],[0.75,0,0],[1,0,0],[0,1,0],[0.25,1,0],[0.5,1,0],[0.75,1,0],[1,1,0],[0,0.25,0],[0,0.5,0],[0,0.75,0],[1,0.25,0],[1,0.5,0],[1,0.75,0]];outlineConnect=0;fontColor=#232F3E;gradientColor=#F78E04;gradientDirection=north;fillColor=#D05C17;strokeColor=#ffffff;dashed=0;verticalLabelPosition=bottom;verticalAlign=top;align=center;html=1;fontSize=12;fontStyle=0;aspect=fixed;shape=mxgraph.aws4.resourceIcon;resIcon=mxgraph.aws4.lambda;" parent="1" vertex="1">
          <mxGeometry x="820" y="160" width="78" height="78" as="geometry" />
        </mxCell>
        <mxCell id="xmvA6-FKrKwEO4W6GDxg-9" value="Lambda Processing" style="verticalLabelPosition=bottom;sketch=0;aspect=fixed;html=1;verticalAlign=top;strokeColor=none;align=center;outlineConnect=0;shape=mxgraph.citrix.process;" parent="1" vertex="1">
          <mxGeometry x="963" y="168" width="52" height="62" as="geometry" />
        </mxCell>
        <mxCell id="xmvA6-FKrKwEO4W6GDxg-14" style="edgeStyle=orthogonalEdgeStyle;rounded=0;orthogonalLoop=1;jettySize=auto;html=1;" parent="1" source="xmvA6-FKrKwEO4W6GDxg-13" target="p8Bbz6JcflMg7gLcOM8f-26" edge="1">
          <mxGeometry relative="1" as="geometry">
            <mxPoint x="639" y="199" as="targetPoint" />
          </mxGeometry>
        </mxCell>
        <mxCell id="xmvA6-FKrKwEO4W6GDxg-13" value="Lambda Test UI Panel" style="sketch=0;html=1;aspect=fixed;strokeColor=none;shadow=0;fillColor=#3B8DF1;verticalAlign=bottom;labelPosition=center;verticalLabelPosition=top;shape=mxgraph.gcp2.website;labelBackgroundColor=default;spacingBottom=0;align=center;" parent="1" vertex="1">
          <mxGeometry x="460" y="150.5" width="100" height="97" as="geometry" />
        </mxCell>
        <mxCell id="p8Bbz6JcflMg7gLcOM8f-13" value="" style="edgeStyle=orthogonalEdgeStyle;rounded=0;orthogonalLoop=1;jettySize=auto;html=1;" edge="1" parent="1" source="p8Bbz6JcflMg7gLcOM8f-14" target="p8Bbz6JcflMg7gLcOM8f-16">
          <mxGeometry relative="1" as="geometry" />
        </mxCell>
        <mxCell id="p8Bbz6JcflMg7gLcOM8f-14" value="User" style="shape=actor;whiteSpace=wrap;html=1;labelPosition=center;verticalLabelPosition=bottom;align=center;verticalAlign=top;" vertex="1" parent="1">
          <mxGeometry x="200" y="599.5" width="40" height="60" as="geometry" />
        </mxCell>
        <mxCell id="p8Bbz6JcflMg7gLcOM8f-15" value="" style="edgeStyle=orthogonalEdgeStyle;rounded=0;orthogonalLoop=1;jettySize=auto;html=1;" edge="1" parent="1" source="p8Bbz6JcflMg7gLcOM8f-16" target="p8Bbz6JcflMg7gLcOM8f-24">
          <mxGeometry relative="1" as="geometry" />
        </mxCell>
        <mxCell id="p8Bbz6JcflMg7gLcOM8f-16" value="AWS Mgmt Console&lt;br&gt;(UI)" style="sketch=0;points=[[0,0,0],[0.25,0,0],[0.5,0,0],[0.75,0,0],[1,0,0],[0,1,0],[0.25,1,0],[0.5,1,0],[0.75,1,0],[1,1,0],[0,0.25,0],[0,0.5,0],[0,0.75,0],[1,0.25,0],[1,0.5,0],[1,0.75,0]];points=[[0,0,0],[0.25,0,0],[0.5,0,0],[0.75,0,0],[1,0,0],[0,1,0],[0.25,1,0],[0.5,1,0],[0.75,1,0],[1,1,0],[0,0.25,0],[0,0.5,0],[0,0.75,0],[1,0.25,0],[1,0.5,0],[1,0.75,0]];outlineConnect=0;fontColor=#232F3E;gradientColor=#F34482;gradientDirection=north;fillColor=#BC1356;strokeColor=#ffffff;dashed=0;verticalLabelPosition=bottom;verticalAlign=top;align=center;html=1;fontSize=12;fontStyle=0;aspect=fixed;shape=mxgraph.aws4.resourceIcon;resIcon=mxgraph.aws4.management_console;" vertex="1" parent="1">
          <mxGeometry x="300" y="590.5" width="78" height="78" as="geometry" />
        </mxCell>
        <mxCell id="p8Bbz6JcflMg7gLcOM8f-17" value="" style="edgeStyle=orthogonalEdgeStyle;rounded=0;orthogonalLoop=1;jettySize=auto;html=1;" edge="1" parent="1" source="p8Bbz6JcflMg7gLcOM8f-18" target="p8Bbz6JcflMg7gLcOM8f-21">
          <mxGeometry relative="1" as="geometry" />
        </mxCell>
        <mxCell id="p8Bbz6JcflMg7gLcOM8f-18" value="Test JSON Event" style="sketch=0;outlineConnect=0;fontColor=#232F3E;gradientColor=none;fillColor=#B0084D;strokeColor=none;dashed=0;verticalLabelPosition=bottom;verticalAlign=top;align=center;html=1;fontSize=12;fontStyle=0;aspect=fixed;pointerEvents=1;shape=mxgraph.aws4.event;" vertex="1" parent="1">
          <mxGeometry x="639" y="590.5" width="78" height="78" as="geometry" />
        </mxCell>
        <mxCell id="p8Bbz6JcflMg7gLcOM8f-19" style="edgeStyle=orthogonalEdgeStyle;rounded=0;orthogonalLoop=1;jettySize=auto;html=1;" edge="1" parent="1" source="p8Bbz6JcflMg7gLcOM8f-21" target="p8Bbz6JcflMg7gLcOM8f-22">
          <mxGeometry relative="1" as="geometry" />
        </mxCell>
        <mxCell id="p8Bbz6JcflMg7gLcOM8f-20" value="RESPONSE" style="edgeStyle=orthogonalEdgeStyle;rounded=0;orthogonalLoop=1;jettySize=auto;html=1;entryX=0.526;entryY=1.005;entryDx=0;entryDy=0;entryPerimeter=0;" edge="1" parent="1" source="p8Bbz6JcflMg7gLcOM8f-21" target="p8Bbz6JcflMg7gLcOM8f-24">
          <mxGeometry relative="1" as="geometry">
            <Array as="points">
              <mxPoint x="859" y="810.5" />
              <mxPoint x="513" y="810.5" />
            </Array>
          </mxGeometry>
        </mxCell>
        <mxCell id="p8Bbz6JcflMg7gLcOM8f-21" value="" style="sketch=0;points=[[0,0,0],[0.25,0,0],[0.5,0,0],[0.75,0,0],[1,0,0],[0,1,0],[0.25,1,0],[0.5,1,0],[0.75,1,0],[1,1,0],[0,0.25,0],[0,0.5,0],[0,0.75,0],[1,0.25,0],[1,0.5,0],[1,0.75,0]];outlineConnect=0;fontColor=#232F3E;gradientColor=#F78E04;gradientDirection=north;fillColor=#D05C17;strokeColor=#ffffff;dashed=0;verticalLabelPosition=bottom;verticalAlign=top;align=center;html=1;fontSize=12;fontStyle=0;aspect=fixed;shape=mxgraph.aws4.resourceIcon;resIcon=mxgraph.aws4.lambda;" vertex="1" parent="1">
          <mxGeometry x="820" y="590.5" width="78" height="78" as="geometry" />
        </mxCell>
        <mxCell id="p8Bbz6JcflMg7gLcOM8f-22" value="Lambda Processing" style="verticalLabelPosition=bottom;sketch=0;aspect=fixed;html=1;verticalAlign=top;strokeColor=none;align=center;outlineConnect=0;shape=mxgraph.citrix.process;" vertex="1" parent="1">
          <mxGeometry x="963" y="598.5" width="52" height="62" as="geometry" />
        </mxCell>
        <mxCell id="p8Bbz6JcflMg7gLcOM8f-23" style="edgeStyle=orthogonalEdgeStyle;rounded=0;orthogonalLoop=1;jettySize=auto;html=1;" edge="1" parent="1" source="p8Bbz6JcflMg7gLcOM8f-24" target="p8Bbz6JcflMg7gLcOM8f-18">
          <mxGeometry relative="1" as="geometry" />
        </mxCell>
        <mxCell id="p8Bbz6JcflMg7gLcOM8f-24" value="Lambda Test UI Panel" style="sketch=0;html=1;aspect=fixed;strokeColor=none;shadow=0;fillColor=#3B8DF1;verticalAlign=bottom;labelPosition=center;verticalLabelPosition=top;shape=mxgraph.gcp2.website;labelBackgroundColor=default;spacingBottom=0;align=center;" vertex="1" parent="1">
          <mxGeometry x="460" y="581" width="100" height="97" as="geometry" />
        </mxCell>
        <mxCell id="p8Bbz6JcflMg7gLcOM8f-25" value="SQS" style="sketch=0;points=[[0,0,0],[0.25,0,0],[0.5,0,0],[0.75,0,0],[1,0,0],[0,1,0],[0.25,1,0],[0.5,1,0],[0.75,1,0],[1,1,0],[0,0.25,0],[0,0.5,0],[0,0.75,0],[1,0.25,0],[1,0.5,0],[1,0.75,0]];outlineConnect=0;fontColor=#232F3E;gradientColor=#FF4F8B;gradientDirection=north;fillColor=#BC1356;strokeColor=#ffffff;dashed=0;verticalLabelPosition=bottom;verticalAlign=top;align=center;html=1;fontSize=12;fontStyle=0;aspect=fixed;shape=mxgraph.aws4.resourceIcon;resIcon=mxgraph.aws4.sqs;" vertex="1" parent="1">
          <mxGeometry x="345" y="812" width="78" height="78" as="geometry" />
        </mxCell>
        <mxCell id="p8Bbz6JcflMg7gLcOM8f-26" value="TEST JSON Event" style="dashed=0;outlineConnect=0;html=1;align=center;labelPosition=center;verticalLabelPosition=bottom;verticalAlign=top;shape=mxgraph.webicons.json;gradientColor=#DFDEDE" vertex="1" parent="1">
          <mxGeometry x="626.8" y="147.60000000000002" width="102.4" height="102.4" as="geometry" />
        </mxCell>
      </root>
    </mxGraphModel>
  </diagram>
</mxfile>
